<svg xmlns="http://www.w3.org/2000/svg" viewBox="0 0 160 160" role="img" aria-labelledby="title desc">
  <title id="title">Simon game thumbnail</title>
  <desc id="desc">Four colored buttons in a circle pattern.</desc>
  <rect width="160" height="160" rx="20" fill="#101b37" />
  <circle cx="80" cy="80" r="58" fill="#1a2744" stroke="#2d3f5a" stroke-width="3" />
  <path d="M80 24 A56 56 0 0 1 136 80 L80 80 Z" fill="#22c55e" />
  <path d="M136 80 A56 56 0 0 1 80 136 L80 80 Z" fill="#ef4444" />
  <path d="M80 136 A56 56 0 0 1 24 80 L80 80 Z" fill="#eab308" />
  <path d="M24 80 A56 56 0 0 1 80 24 L80 80 Z" fill="#3b82f6" />
  <circle cx="80" cy="80" r="16" fill="#0f172a" stroke="#2d3f5a" stroke-width="2" />
  <g fill="none" stroke="#fff" stroke-width="2" stroke-linecap="round" opacity="0.6">
    <path d="M100 50 l8 -8" />
    <path d="M110 60 l8 -8" />
  </g>
</svg>
