<svg xmlns="http://www.w3.org/2000/svg" viewBox="0 0 128 128" role="img" aria-labelledby="title desc">
  <title id="title">T-Rex Runner Thumbnail</title>
  <desc id="desc">Pixelated dinosaur running through a desert with cacti</desc>
  <defs>
    <linearGradient id="sky" x1="0%" y1="0%" x2="0%" y2="100%">
      <stop offset="0%" stop-color="#4f75d2" />
      <stop offset="100%" stop-color="#8cb7ff" />
    </linearGradient>
    <linearGradient id="ground" x1="0%" y1="0%" x2="100%" y2="0%">
      <stop offset="0%" stop-color="#d9a96a" />
      <stop offset="100%" stop-color="#c28a4d" />
    </linearGradient>
  </defs>
  <rect width="128" height="128" rx="16" fill="#0c1a3d" />
  <rect x="8" y="8" width="112" height="112" rx="12" fill="url(#sky)" />
  <rect x="8" y="84" width="112" height="36" rx="10" fill="url(#ground)" />
  <g fill="#1f2b52" opacity="0.25">
    <rect x="20" y="100" width="24" height="4" rx="2" />
    <rect x="76" y="96" width="32" height="4" rx="2" />
    <rect x="50" y="104" width="18" height="4" rx="2" />
  </g>
  <g fill="#2f3b63">
    <rect x="28" y="96" width="16" height="12" rx="2" />
    <rect x="92" y="92" width="16" height="16" rx="2" />
    <rect x="100" y="78" width="8" height="14" rx="2" />
  </g>
  <g fill="#1c1c1c">
    <rect x="38" y="44" width="44" height="36" />
    <rect x="30" y="56" width="16" height="24" />
    <rect x="82" y="56" width="10" height="16" />
    <rect x="48" y="80" width="12" height="12" />
    <rect x="64" y="80" width="12" height="12" />
    <rect x="28" y="68" width="12" height="8" />
    <rect x="24" y="72" width="8" height="8" />
    <rect x="32" y="76" width="12" height="8" />
    <rect x="52" y="56" width="24" height="8" />
    <rect x="68" y="48" width="16" height="12" />
    <rect x="76" y="40" width="12" height="12" />
    <rect x="80" y="36" width="12" height="12" />
    <rect x="84" y="32" width="12" height="12" />
    <rect x="88" y="40" width="4" height="4" fill="#ffffff" />
    <rect x="96" y="72" width="8" height="12" />
  </g>
  <g fill="#121212">
    <rect x="48" y="90" width="12" height="6" />
    <rect x="64" y="90" width="12" height="6" />
  </g>
  <g fill="#ffffff" opacity="0.35">
    <rect x="20" y="28" width="24" height="6" rx="3" />
    <rect x="60" y="20" width="18" height="6" rx="3" />
    <rect x="94" y="28" width="10" height="6" rx="3" />
  </g>
</svg>
